<svg xmlns="http://www.w3.org/2000/svg" width="1200" height="750" viewBox="0 0 1200 750" fill="none">
  <!-- Dark Atmospheric Background -->
  <rect width="1200" height="750" fill="#131313"/>
  
  <!-- Subtle Ambient Glow -->
  <circle cx="950" cy="200" r="350" fill="#FFAFD6" fill-opacity="0.08" filter="blur(80px)" />
  <circle cx="200" cy="550" r="280" fill="#BECC9A" fill-opacity="0.05" filter="blur(80px)" />
  
  <!-- Grid Lines -->
  <path d="M0 100H1200M0 250H1200M0 400H1200M0 550H1200M0 700H1200" stroke="#FFFFFF" stroke-opacity="0.03" stroke-width="1"/>
  <path d="M200 0V750M400 0V750M600 0V750M800 0V750M1000 0V750" stroke="#FFFFFF" stroke-opacity="0.03" stroke-width="1"/>

  <!-- Top Navbar Preview -->
  <rect x="60" y="40" width="1080" height="64" rx="8" fill="#1B1B1B" fill-opacity="0.7" stroke="#FFFFFF" stroke-opacity="0.08"/>
  <text x="90" y="80" fill="#F4EEE9" font-family="system-ui, sans-serif" font-size="18" font-weight="900" letter-spacing="1">TECH<tspan fill="#FFAFD6">@WORK</tspan></text>

  <!-- Nav Dock Mockup -->
  <rect x="520" y="52" width="260" height="40" rx="20" fill="#120F17" fill-opacity="0.6" stroke="#FFFFFF" stroke-opacity="0.1"/>
  <circle cx="550" cy="72" r="12" fill="#FFAFD6" fill-opacity="0.2"/>
  <circle cx="590" cy="72" r="10" fill="#FFFFFF" fill-opacity="0.1"/>
  <circle cx="630" cy="72" r="10" fill="#FFFFFF" fill-opacity="0.1"/>
  <circle cx="670" cy="72" r="10" fill="#FFFFFF" fill-opacity="0.1"/>
  <circle cx="710" cy="72" r="10" fill="#FFFFFF" fill-opacity="0.1"/>

  <rect x="990" y="54" width="130" height="36" rx="6" fill="#FFAFD6" fill-opacity="0.15" stroke="#FFAFD6" stroke-opacity="0.4"/>
  <text x="1010" y="77" fill="#FFAFD6" font-family="system-ui, sans-serif" font-size="11" font-weight="700" letter-spacing="1">BOOK CONSULT</text>

  <!-- Hero Content Section -->
  <text x="90" y="190" fill="#FFAFD6" font-family="system-ui, sans-serif" font-size="14" font-weight="800" letter-spacing="3">TECH<tspan fill="#7C7471">@WORK</tspan></text>

  <text x="90" y="245" fill="#F4EEE9" font-family="system-ui, sans-serif" font-size="44" font-weight="900" letter-spacing="-1">AI-POWERED DIGITAL</text>
  <text x="90" y="295" fill="#FFAFD6" font-family="system-ui, sans-serif" font-size="44" font-weight="900" letter-spacing="-1">SOLUTIONS <tspan fill="#F4EEE9">FOR MODERN</tspan></text>
  <text x="90" y="345" fill="#F4EEE9" font-family="system-ui, sans-serif" font-size="44" font-weight="900" letter-spacing="-1">BUSINESSES</text>

  <!-- Glass Card Preview -->
  <rect x="90" y="390" width="580" height="180" rx="12" fill="#353535" fill-opacity="0.4" stroke="#FFFFFF" stroke-opacity="0.1"/>
  <text x="120" y="435" fill="#C8BFBA" font-family="system-ui, sans-serif" font-size="14" font-weight="300">From AI-integrated websites to market intelligence and growth</text>
  <text x="120" y="460" fill="#C8BFBA" font-family="system-ui, sans-serif" font-size="14" font-weight="300">automation, Tech@Work helps businesses scale with intelligent</text>
  <text x="120" y="485" fill="#C8BFBA" font-family="system-ui, sans-serif" font-size="14" font-weight="300">digital infrastructure.</text>

  <!-- Trust Pills Mockup -->
  <rect x="120" y="515" width="140" height="32" rx="16" fill="#FFAFD6" fill-opacity="0.1" stroke="#FFAFD6" stroke-opacity="0.3"/>
  <text x="140" y="536" fill="#FFAFD6" font-family="system-ui, sans-serif" font-size="10" font-weight="700" letter-spacing="1">AI AUTOMATION</text>

  <rect x="270" y="515" width="140" height="32" rx="16" fill="#FFAFD6" fill-opacity="0.1" stroke="#FFAFD6" stroke-opacity="0.3"/>
  <text x="290" y="536" fill="#FFAFD6" font-family="system-ui, sans-serif" font-size="10" font-weight="700" letter-spacing="1">CUSTOM WEBSITES</text>

  <rect x="420" y="515" width="160" height="32" rx="16" fill="#FFAFD6" fill-opacity="0.1" stroke="#FFAFD6" stroke-opacity="0.3"/>
  <text x="435" y="536" fill="#FFAFD6" font-family="system-ui, sans-serif" font-size="10" font-weight="700" letter-spacing="1">MARKET INTELLIGENCE</text>

  <!-- Metrics Cards Preview -->
  <rect x="710" y="390" width="130" height="180" rx="12" fill="#353535" fill-opacity="0.4" stroke="#FFAFD6" stroke-opacity="0.3"/>
  <text x="730" y="450" fill="#F4EEE9" font-family="system-ui, sans-serif" font-size="36" font-weight="900">50<tspan fill="#FFAFD6">+</tspan></text>
  <text x="730" y="500" fill="#7C7471" font-family="system-ui, sans-serif" font-size="10" font-weight="700" letter-spacing="1">PROJECTS</text>
  <text x="730" y="518" fill="#7C7471" font-family="system-ui, sans-serif" font-size="10" font-weight="700" letter-spacing="1">DELIVERED</text>

  <rect x="855" y="390" width="130" height="180" rx="12" fill="#353535" fill-opacity="0.4" stroke="#BECC9A" stroke-opacity="0.3"/>
  <text x="875" y="450" fill="#F4EEE9" font-family="system-ui, sans-serif" font-size="36" font-weight="900">20<tspan fill="#BECC9A">+</tspan></text>
  <text x="875" y="500" fill="#7C7471" font-family="system-ui, sans-serif" font-size="10" font-weight="700" letter-spacing="1">INDUSTRIES</text>
  <text x="875" y="518" fill="#7C7471" font-family="system-ui, sans-serif" font-size="10" font-weight="700" letter-spacing="1">SERVED</text>

  <rect x="1000" y="390" width="130" height="180" rx="12" fill="#353535" fill-opacity="0.4" stroke="#E38CB8" stroke-opacity="0.3"/>
  <text x="1015" y="450" fill="#F4EEE9" font-family="system-ui, sans-serif" font-size="36" font-weight="900">95<tspan fill="#E38CB8">%</tspan></text>
  <text x="1015" y="500" fill="#7C7471" font-family="system-ui, sans-serif" font-size="10" font-weight="700" letter-spacing="1">CLIENT</text>
  <text x="1015" y="518" fill="#7C7471" font-family="system-ui, sans-serif" font-size="10" font-weight="700" letter-spacing="1">RETENTION</text>

  <!-- Bottom Watermark -->
  <text x="90" y="690" fill="#7C7471" font-family="monospace" font-size="12" letter-spacing="3">PROJECT 01 // TECH AT WORK (TECH-WORK-MU.VERCEL.APP)</text>
</svg>

